<svg width="129" height="129" viewBox="0 0 129 129" fill="none" xmlns="http://www.w3.org/2000/svg">
<path d="M45.3457 105.649H20.3457C19.4201 105.649 18.5106 105.407 17.7076 104.946C16.9047 104.486 16.2363 103.823 15.769 103.024C15.3018 102.225 15.0519 101.318 15.0443 100.392C15.0367 99.4667 15.2716 98.5553 15.7257 97.7487L59.8057 19.5587C60.2674 18.7412 60.938 18.0609 61.7488 17.5876C62.5597 17.1143 63.4818 16.8648 64.4207 16.8648C65.3596 16.8648 66.2817 17.1143 67.0925 17.5876C67.9034 18.0609 68.574 18.7412 69.0357 19.5587L82.2457 42.8787C82.7127 43.6856 82.9586 44.6014 82.9586 45.5337C82.9586 46.466 82.7127 47.3818 82.2457 48.1887L49.9357 103.039C49.4662 103.838 48.7952 104.499 47.9896 104.957C47.1841 105.415 46.2723 105.654 45.3457 105.649Z" fill="black"/>
<path d="M73.8257 97.7287L88.6757 71.2387C89.1388 70.4214 89.8104 69.7415 90.6221 69.2685C91.4337 68.7955 92.3563 68.5463 93.2957 68.5463C94.2351 68.5463 95.1577 68.7955 95.9694 69.2685C96.781 69.7415 97.4526 70.4214 97.9157 71.2387L112.916 97.7187C113.374 98.5258 113.612 99.4389 113.607 100.367C113.602 101.295 113.354 102.205 112.888 103.007C112.421 103.81 111.753 104.476 110.949 104.939C110.145 105.403 109.234 105.647 108.306 105.649H78.4557C77.5275 105.65 76.6153 105.407 75.8099 104.946C75.0046 104.484 74.3343 103.82 73.8658 103.019C73.3974 102.217 73.1472 101.307 73.1401 100.379C73.1331 99.4508 73.3695 98.5371 73.8257 97.7287Z" fill="black"/>
</svg>
