<svg width="129" height="129" viewBox="0 0 129 129" fill="none" xmlns="http://www.w3.org/2000/svg">
<path d="M107.778 51.2945L94.7959 64.277L107.778 77.2595L120.761 64.277L107.778 51.2945Z" fill="black"/>
<path d="M21.3914 51.3015L8.40894 64.2839L21.3914 77.2664L34.3739 64.2839L21.3914 51.3015Z" fill="black"/>
<path d="M64.5817 94.504L43.0617 72.984L30.0817 85.964L64.5817 120.464L99.0817 85.964L86.1017 72.984L64.5817 94.504Z" fill="black"/>
<path d="M64.5817 34.064L86.1017 55.584L99.0817 42.604L64.5817 8.104L30.0817 42.604L43.0617 55.584L64.5817 34.064Z" fill="black"/>
<path d="M64.5742 51.4642L51.7544 64.284L64.5742 77.1038L77.3941 64.284L64.5742 51.4642Z" fill="black"/>
</svg>
