<svg width="129" height="129" viewBox="0 0 129 129" fill="none" xmlns="http://www.w3.org/2000/svg">
<path d="M98.9942 81.044C98.2942 72.924 89.9942 67.494 89.9942 67.494C89.9942 67.494 100.574 64.624 101.664 52.084C102.354 44.084 97.3142 35.734 84.6642 32.014L89.0242 15.544L78.6442 12.794L74.2942 29.224L65.6842 26.944L70.0342 10.514L59.6342 7.764L55.2842 24.194L38.5642 19.764L35.8142 30.134L45.9942 32.824L32.7142 82.994L22.5342 80.284L19.6142 91.284L36.3342 95.714L31.9842 112.174L42.4242 114.984L46.7842 98.524L55.3942 100.804L50.9942 117.284L61.4242 120.014L65.7842 103.554L68.1942 104.184C88.5142 109.284 100.194 95.044 98.9942 81.044ZM63.2042 37.384C63.2042 37.384 67.4242 38.474 73.4842 40.104C79.2342 41.654 83.6142 46.734 82.2642 52.464C80.9142 58.194 74.9242 61.844 68.6342 60.284C62.8642 58.844 57.8942 57.444 57.8942 57.444L63.2042 37.384ZM63.6742 91.194C57.6742 89.734 49.9242 87.554 49.9242 87.554L55.4242 66.724C55.4242 66.724 62.4242 68.724 68.6542 70.224C76.1042 72.064 80.6542 76.954 79.0142 83.504C77.3742 90.054 71.7642 93.164 63.6742 91.194Z" fill="black"/>
</svg>
