<svg width="24" height="24" viewBox="0 0 24 24" fill="none" xmlns="http://www.w3.org/2000/svg">
<path d="M21.25 12C21.25 6.89137 17.1086 2.75 12 2.75C6.89137 2.75 2.75 6.89137 2.75 12C2.75 17.1086 6.89137 21.25 12 21.25C17.1086 21.25 21.25 17.1086 21.25 12Z" stroke="white" stroke-width="1.5"/>
<path d="M10.7707 10.1287L13.4962 9.24364C14.2731 8.99132 15.0085 9.72663 14.7561 10.5036L13.8711 13.229C13.7722 13.5336 13.5334 13.7724 13.2288 13.8713L10.5034 14.7564C9.72639 15.0087 8.99107 14.2734 9.2434 13.4964L10.1285 10.7709C10.2274 10.4664 10.4662 10.2276 10.7707 10.1287Z" stroke="white" stroke-width="1.5"/>
</svg>
