<svg width="24" height="24" viewBox="0 0 24 24" fill="none" xmlns="http://www.w3.org/2000/svg">
<path d="M8 2.75H5C3.75736 2.75 2.75 3.75736 2.75 5V8C2.75 9.24264 3.75736 10.25 5 10.25H8C9.24264 10.25 10.25 9.24264 10.25 8V5C10.25 3.75736 9.24264 2.75 8 2.75Z" stroke="white" stroke-width="1.5"/>
<path d="M19 2.75H16C14.7574 2.75 13.75 3.75736 13.75 5V8C13.75 9.24264 14.7574 10.25 16 10.25H19C20.2426 10.25 21.25 9.24264 21.25 8V5C21.25 3.75736 20.2426 2.75 19 2.75Z" stroke="white" stroke-width="1.5"/>
<path d="M19 13.75H16C14.7574 13.75 13.75 14.7574 13.75 16V19C13.75 20.2426 14.7574 21.25 16 21.25H19C20.2426 21.25 21.25 20.2426 21.25 19V16C21.25 14.7574 20.2426 13.75 19 13.75Z" stroke="white" stroke-width="1.5"/>
<path d="M8 13.75H5C3.75736 13.75 2.75 14.7574 2.75 16V19C2.75 20.2426 3.75736 21.25 5 21.25H8C9.24264 21.25 10.25 20.2426 10.25 19V16C10.25 14.7574 9.24264 13.75 8 13.75Z" stroke="white" stroke-width="1.5"/>
</svg>
