<svg width="246" height="253" viewBox="0 0 246 253" fill="none" xmlns="http://www.w3.org/2000/svg">
<path d="M21.5 8.5L109 76L21.5 116M21.5 8.5V116M21.5 8.5L123.5 37M21.5 116L7 166.5L21.5 232.5L72.5 216M123.5 199.5L72.5 216M72.5 216L123.5 247M109 132H57L109 166.5V132Z" stroke="black" stroke-width="12"/>
<path d="M225 8.5L137.5 76L225 116M225 8.5V116M225 8.5L123 37M225 116L239.5 166.5L225 232.5L174 216M123 199.5L174 216M174 216L123 247M137.5 132H189.5L137.5 166.5V132Z" stroke="black" stroke-width="12"/>
</svg>
