<svg width="24" height="24" viewBox="0 0 24 24" fill="none" xmlns="http://www.w3.org/2000/svg">
<path fill-rule="evenodd" clip-rule="evenodd" d="M10.3042 18.7641C9.77927 18.7641 9.3801 19.2534 9.6547 19.7007C10.1383 20.4886 11.0078 21.0141 12.0001 21.0141C12.9923 21.0141 13.8618 20.4886 14.3455 19.7007C14.6201 19.2534 14.2209 18.7641 13.696 18.7641C13.3619 18.7641 13.075 18.9841 12.8238 19.2043C12.6039 19.3972 12.3156 19.5141 12.0001 19.5141C11.6845 19.5141 11.3963 19.3972 11.1763 19.2043C10.9252 18.9841 10.6382 18.7641 10.3042 18.7641Z" fill="white"/>
<mask id="mask0_3_2076" style="mask-type:alpha" maskUnits="userSpaceOnUse" x="3" y="1" width="18" height="17">
<path fill-rule="evenodd" clip-rule="evenodd" d="M19.5 10.85C19.5 7.86166 18.0167 5.06819 15.5411 3.39434L14.2405 2.51492C12.887 1.59976 11.113 1.59976 9.75949 2.51492L8.45887 3.39433C5.9833 5.06819 4.5 7.86165 4.5 10.85V12.7639C3.88625 13.3132 3.5 14.1115 3.5 15C3.5 16.6569 4.84315 18 6.5 18H17.5C19.1569 18 20.5 16.6569 20.5 15C20.5 14.1115 20.1137 13.3132 19.5 12.7639V10.85Z" fill="white"/>
</mask>
<g mask="url(#mask0_3_2076)">
<path d="M15.5411 3.39434L14.7009 4.63695L15.5411 3.39434ZM19.5 10.85H21H19.5ZM14.2405 2.51492L15.0807 1.27231L14.2405 2.51492ZM9.75949 2.51492L8.91931 1.27231L9.75949 2.51492ZM8.45887 3.39433L9.29906 4.63695L8.45887 3.39433ZM4.5 10.85H6H4.5ZM4.5 12.7639L5.50037 13.8816L6 13.4344V12.7639H4.5ZM19.5 12.7639H18V13.4344L18.4996 13.8816L19.5 12.7639ZM14.7009 4.63695C16.7639 6.03182 18 8.35971 18 10.85H21C21 7.3636 19.2695 4.10455 16.3813 2.15172L14.7009 4.63695ZM13.4003 3.75753L14.7009 4.63695L16.3813 2.15172L15.0807 1.27231L13.4003 3.75753ZM10.5997 3.75753C11.4456 3.18556 12.5544 3.18556 13.4003 3.75753L15.0807 1.27231C13.2196 0.0139666 10.7804 0.0139663 8.91931 1.27231L10.5997 3.75753ZM9.29906 4.63695L10.5997 3.75753L8.91931 1.27231L7.61868 2.15172L9.29906 4.63695ZM6 10.85C6 8.35971 7.23608 6.03182 9.29906 4.63695L7.61868 2.15172C4.73051 4.10455 3 7.3636 3 10.85H6ZM6 12.7639V10.85H3V12.7639H6ZM5 15C5 14.5559 5.1911 14.1584 5.50037 13.8816L3.49963 11.6462C2.5814 12.468 2 13.6671 2 15H5ZM6.5 16.5C5.67157 16.5 5 15.8284 5 15H2C2 17.4853 4.01472 19.5 6.5 19.5V16.5ZM17.5 16.5H6.5V19.5H17.5V16.5ZM19 15C19 15.8284 18.3284 16.5 17.5 16.5V19.5C19.9853 19.5 22 17.4853 22 15H19ZM18.4996 13.8816C18.8089 14.1584 19 14.5559 19 15H22C22 13.6671 21.4186 12.468 20.5004 11.6462L18.4996 13.8816ZM18 10.85V12.7639H21V10.85H18Z" fill="white"/>
</g>
</svg>
