<svg width="512" height="512" viewBox="0 0 512 512" fill="none" xmlns="http://www.w3.org/2000/svg">
<g clip-path="url(#clip0_5_18)">
<path d="M7 0C140.888 0.152451 269.248 53.4066 363.921 148.079C458.593 242.752 511.848 371.112 512 505C511.999 506.856 511.261 508.636 509.949 509.949C508.636 511.261 506.856 511.999 505 512H205C203.144 511.999 201.364 511.261 200.051 509.949C198.739 508.636 198.001 506.856 198 505C197.947 454.36 177.807 405.809 141.999 370.001C106.191 334.193 57.6401 314.053 7 314C5.14381 313.999 3.36395 313.261 2.05142 311.949C0.738897 310.636 0.00105977 308.856 0 307V7C0.00105977 5.14381 0.738897 3.36395 2.05142 2.05142C3.36395 0.738898 5.14381 0.00105977 7 0V0ZM271.908 498H317.824C315.936 418.015 283.32 341.828 226.746 285.254C170.172 228.68 93.9853 196.064 14 194.176V240.092C81.812 241.958 146.333 269.73 194.302 317.698C242.27 365.667 270.042 430.188 271.908 498V498ZM14 120.064C113.634 121.983 208.653 162.417 279.118 232.882C349.583 303.347 390.017 398.366 391.936 498H437.912C435.967 386.179 390.681 279.482 311.6 200.4C232.518 121.319 125.821 76.0327 14 74.088V120.064ZM14 134.088V180.088C97.7189 181.99 177.482 216.095 236.696 275.307C295.911 334.52 330.019 414.281 331.924 498H377.924C376.004 402.084 337.045 310.631 269.208 242.796C201.37 174.961 109.916 136.005 14 134.088V134.088ZM14 14.048V60.048C129.543 61.9977 239.807 108.765 321.519 190.478C403.231 272.192 449.996 382.457 451.944 498H497.952C495.993 370.259 444.376 248.299 354.039 157.961C263.701 67.6239 141.741 16.0072 14 14.048V14.048ZM211.884 498H257.824C255.969 433.921 229.684 372.975 184.354 327.646C139.025 282.316 78.0793 256.031 14 254.176V300.116C65.8963 301.955 115.167 323.394 151.887 360.113C188.606 396.833 210.045 446.104 211.884 498V498Z" fill="black"/>
</g>
<defs>
<clipPath id="clip0_5_18">
<rect width="512" height="512" fill="white" transform="matrix(-1 0 0 1 512 0)"/>
</clipPath>
</defs>
</svg>
