<svg width="24" height="24" viewBox="0 0 24 24" fill="none" xmlns="http://www.w3.org/2000/svg">
<path d="M7.5 4.75C7.5 3.7835 6.7165 3 5.75 3C4.7835 3 4 3.7835 4 4.75C4 5.7165 4.7835 6.5 5.75 6.5C6.7165 6.5 7.5 5.7165 7.5 4.75Z" stroke="white" stroke-width="1.5"/>
<path d="M14 11.75C14 10.7835 13.2165 10 12.25 10C11.2835 10 10.5 10.7835 10.5 11.75C10.5 12.7165 11.2835 13.5 12.25 13.5C13.2165 13.5 14 12.7165 14 11.75Z" stroke="white" stroke-width="1.5"/>
<path fill-rule="evenodd" clip-rule="evenodd" d="M5.75 9C5.33579 9 5 9.33579 5 9.75V20.25C5 20.6642 5.33579 21 5.75 21C6.16421 21 6.5 20.6642 6.5 20.25V9.75C6.5 9.33579 6.16421 9 5.75 9Z" fill="white"/>
<path fill-rule="evenodd" clip-rule="evenodd" d="M18.75 3C18.3358 3 18 3.33579 18 3.75V14.25C18 14.6642 18.3358 15 18.75 15C19.1642 15 19.5 14.6642 19.5 14.25V3.75C19.5 3.33579 19.1642 3 18.75 3Z" fill="white"/>
<path fill-rule="evenodd" clip-rule="evenodd" d="M12.25 3C12.6642 3 13 3.33579 13 3.75V7.25C13 7.66421 12.6642 8 12.25 8C11.8358 8 11.5 7.66421 11.5 7.25V3.75C11.5 3.33579 11.8358 3 12.25 3ZM12.25 16C11.8358 16 11.5 16.3358 11.5 16.75V20.25C11.5 20.6642 11.8358 21 12.25 21C12.6642 21 13 20.6642 13 20.25V16.75C13 16.3358 12.6642 16 12.25 16Z" fill="white"/>
<path d="M20.5 19.25C20.5 18.2835 19.7165 17.5 18.75 17.5C17.7835 17.5 17 18.2835 17 19.25C17 20.2165 17.7835 21 18.75 21C19.7165 21 20.5 20.2165 20.5 19.25Z" stroke="white" stroke-width="1.5"/>
</svg>
