<svg id="Layer_1" height="512" viewBox="0 0 512 512" width="512" xmlns="http://www.w3.org/2000/svg" data-name="Layer 1"><path d="m45.646 90.113c0 13.3-.069 26.179-.135 38.631-.471 88.276-.843 158 24.881 218.356 13.514 31.708 33.793 59.727 62 85.658 29.267 26.909 67.923 52.4 118.175 77.94a12 12 0 0 0 10.874 0c50.252-25.537 88.908-51.031 118.175-77.94 28.2-25.931 48.482-53.95 62-85.658 25.724-60.354 25.352-130.08 24.881-218.356-.066-12.452-.135-25.328-.135-38.631a12 12 0 0 0 -7.6-11.165l-198.362-78.113a12 12 0 0 0 -8.794 0l-198.357 78.113a12 12 0 0 0 -7.603 11.165zm23.864 38.759q.079-14.883.128-30.584l186.362-73.388 186.362 73.388q.03 15.713.128 30.584c.921 172.915 1.389 260.528-186.49 357.644-187.879-97.116-187.411-184.729-186.49-357.644zm95.159 127.828a12 12 0 0 1 18.061-15.8l51.112 58.414 118.991-112.634a12 12 0 0 1 16.5 17.429l-128.055 121.211a12 12 0 0 1 -8.249 3.285c-.187 0-.376 0-.564-.013a12 12 0 0 1 -8.465-4.084z"/></svg>